<svg width="191" height="191" viewBox="0 0 191 191" fill="none" xmlns="http://www.w3.org/2000/svg">
<path fill-rule="evenodd" clip-rule="evenodd" d="M79.4361 145.273V121.149H99.4029V144.423C99.4029 144.423 99.6695 158.716 86.9131 167.953C86.9131 167.953 66.7913 181.704 48.9336 165.404C48.9336 165.404 39.854 156.449 39.1626 146.717V54.0432C39.1626 54.0432 38.5906 17.1777 76.0375 17.1777H124.468C124.468 17.1777 130.962 17.2976 138.657 22.869C138.657 22.869 148.306 41.5756 131.18 46.1435C131.18 46.1435 130.518 38.2777 122.768 37.4792H78.0767C78.0767 37.4792 61.6074 38.1886 59.0445 59.5646V143.404C59.0445 143.404 59.0644 154.373 69.4102 154.107C69.4102 154.107 79.2523 155.044 79.4361 145.273Z" fill="white"/>
<path fill-rule="evenodd" clip-rule="evenodd" d="M131.156 46.0915C131.156 46.0915 130.499 42.353 128.753 40.4716C128.753 40.4716 140.458 37.3619 138.486 22.6992C138.486 22.6992 147.847 43.4168 131.156 46.0915Z" fill="black"/>
<path fill-rule="evenodd" clip-rule="evenodd" d="M79.3759 145.272C79.3759 145.272 87.8532 129.354 99.4022 134.569V127.008H89.3733C89.3733 127.008 78.0474 127.749 79.3759 145.272Z" fill="black"/>
<path fill-rule="evenodd" clip-rule="evenodd" d="M89.441 46.7739L124.553 46.7382C124.553 46.7382 145.793 49.2284 138.402 22.6992C138.402 22.6992 151.432 30.6521 151.147 46.7739C151.147 46.7739 150.703 66.8393 129.582 66.8393H94.4586C94.4586 66.8393 89.441 66.8393 89.441 71.8556C89.441 71.8556 89.441 76.8719 94.4586 76.8719H129.582C129.582 76.8719 148.775 80.1659 151.062 99.1484C151.062 99.1484 153.505 122.019 129.582 127.035H89.441C89.441 127.035 79.4057 128.225 79.4057 145.188C79.4057 145.188 65.8538 138.279 68.2209 123.867C68.2209 123.867 70.5423 106.97 89.441 106.97H124.564C124.564 106.97 129.582 106.97 129.582 101.953C129.582 101.953 129.582 96.9373 124.564 96.9373H89.441C89.441 96.9373 68.3021 91.921 68.2209 71.856C68.2209 71.856 67.7611 49.912 89.441 46.7739Z" fill="white"/>
</svg>
